<?xml version="1.0" standalone="yes"?>
<svg xmlns="http://www.w3.org/2000/svg" width="509" height="509">
<path style="fill:#ffffff; stroke:none;" d="M0 0L0 509L509 509L509 0L0 0z"/>
<path style="fill:#b9d7d2; stroke:none;" d="M213 92L213 93L217 93L213 92z"/>
<path style="fill:#59caba; stroke:none;" d="M211 93C214.432 97.5735 222.304 98.9947 226.999 102.515C238.983 111.498 247.329 124.998 248.829 140C252.455 176.257 215.266 205.49 181 194.251C161.18 187.75 149.073 170.733 145 151C139.48 160.038 139.996 172.79 140 183C140.021 238.805 197.578 277.654 250 263.844C311.189 247.725 334.54 169.716 293.7 122C271.597 96.1761 242.863 91.6317 211 93z"/>
<path style="fill:#b9d7d2; stroke:none;" d="M237 92L237 93L241 93L237 92M207.91 93.5941C186.753 95.0209 165.307 113.467 154.029 130C150.465 135.224 145.418 142.561 144.714 149C141.594 177.504 176.432 198.632 201 196.91C231.765 194.754 253.955 165.05 248.195 135C245.045 118.566 227.649 92.263 207.91 93.5941M244 93L244 94L247 94L244 93M249.667 94.3333L250.333 94.6667L249.667 94.3333M252.667 95.3333L253.333 95.6667L252.667 95.3333M256 96L257 97L256 96M258.667 97.3333L259.333 97.6667L258.667 97.3333M261 98L262 99L261 98M263 99L264 100L263 99M265 100L266 101L265 100M267 101L268 102L267 101M269 102L270 103L269 102M271 103L272 104L271 103M274 105L275 106L274 105M277 107L278 108L277 107M280 109L281 110L280 109M281 110L282 111L281 110M287 115L288 116L287 115M288 116L289 117L288 116M289 117L290 118L289 117M290 118L291 119L290 118M291 119L292 120L291 119M295 124L296 125L295 124M296 125L297 126L296 125z"/>
<path style="fill:#ffffff; stroke:none;" d="M194 128.544C172.568 132.965 179.748 165.624 201 160.467C220.665 155.694 213.81 124.458 194 128.544z"/>
<path style="fill:#b9d7d2; stroke:none;" d="M298 128L299 129L298 128M299 129L300 130L299 129M300 131L301 132L300 131M301 132L302 133L301 132M302 134L303 135L302 134M305 139L306 140L305 139M307 144L308 145L307 144M308 146L309 147L308 146M309 149L310 150L309 149M143.333 152.667L143.667 153.333L143.333 152.667M310 152L311 153L310 152M142 155L142 158L143 158L142 155M311 155L312 156L311 155M141 159L141 162L142 162L141 159M312 159L313 160L312 159M313 163L313 166L314 166L313 163M140 164L140 168L141 168L140 164M139 172L139 186L140 186L139 172M314 172L314 186L315 186L314 172M140.333 192.667L140.667 193.333L140.333 192.667M313.333 193.667L313.667 194.333L313.333 193.667M141.333 198.667L141.667 199.333L141.333 198.667M312.333 198.667L312.667 199.333L312.333 198.667M142 202L143 203L142 202M311 202L312 203L311 202M143.333 205.667L143.667 206.333L143.333 205.667M310 206L311 207L310 206M144.333 208.667L144.667 209.333L144.333 208.667M309 209L310 210L309 209M145 211L146 212L145 211M308 211L309 212L308 211M146.333 213.667L146.667 214.333L146.333 213.667M307 214L308 215L307 214M147 216L148 217L147 216M306 216L307 217L306 216M148 218L149 219L148 218M305 218L306 219L305 218M149 220L150 221L149 220M304 220L305 221L304 220M150 222L151 223L150 222M303 222L304 223L303 222M152 225L153 226L152 225M301 225L302 226L301 225M154 228L155 229L154 228M299 228L300 229L299 228M156 231L157 232L156 231M297 231L298 232L297 231M157 232L158 233L157 232M296 232L297 233L296 232M160 236L161 237L160 236M293 236L294 237L293 236M161 237L162 238L161 237M292 237L293 238L292 237M162 238L163 239L162 238M291 238L292 239L291 238M167 243L168 244L167 243M168 244L169 245L168 244M285 244L286 245L285 244M169 245L170 246L169 245M284 245L285 246L284 245M174 249L175 250L174 249M279 249L280 250L279 249M177 251L178 252L177 251M276 251L277 252L276 251M180 253L181 254L180 253M273 253L274 254L273 253M183 255L184 256L183 255M270 255L271 256L270 255M185 256L186 257L185 256M268 256L269 257L268 256M187 257L188 258L187 257M266 257L267 258L266 257M189 258L190 259L189 258M264 258L265 259L264 258M191 259L192 260L191 259M262 259L263 260L262 259M194 260L195 261L194 260M196 261L197 262L196 261M257 261L258 262L257 261M199 262L200 263L199 262M254 262L255 263L254 262M202 263L203 264L202 263M251 263L252 264L251 263M206 264L207 265L206 264M247 264L248 265L247 264M210 265L210 266L213 266L210 265M241 265L241 266L244 266L241 265M218 266L218 267L236 267L218 266M276 285.424C265.289 286.831 254.591 287.131 244 289.654C241.211 290.319 234.285 291.669 234.921 295.819C235.397 298.917 240.566 299.894 243 300.522C251.134 302.618 259.657 303.477 268 304.089C294.371 306.022 320.63 306.806 347 304.169C356.569 303.212 369.394 303.557 377.937 298.558C389.337 291.887 360.958 287.444 357 287.075C330.989 284.646 302.042 282.005 276 285.424z"/>
<path style="fill:#8c8c8a; stroke:none;" d="M69 365L69 366L129 366L129 373C132.689 364.112 122.902 365 117 365L69 365z"/>
<path style="fill:#b9d7d2; stroke:none;" d="M129 365L130 366L129 365M139 365L139 418L140 418L140 382L139 365z"/>
<path style="fill:#8c8c8a; stroke:none;" d="M140 365L140 366L194 366L176 365L140 365z"/>
<path style="fill:#b9d7d2; stroke:none;" d="M209 365L210 366L209 365z"/>
<path style="fill:#8c8c8a; stroke:none;" d="M219 398L218 398L218 417L210 417L210 366L256 366C246.926 362.192 231.847 365 222 365C218.878 365 213.221 363.954 210.603 366.028C207.927 368.147 209 374.02 209 377L209 406C209 408.976 207.926 414.859 210.603 416.972C220.81 425.029 219 402.006 219 398z"/>
<path style="fill:#b9d7d2; stroke:none;" d="M256 365L257 366L256 365z"/>
<path style="fill:#8c8c8a; stroke:none;" d="M284 365L284 366L293 366L293 417L284 417C286.704 418.134 291.761 419.006 293.397 415.682C297.722 406.892 294 387.812 294 378C294 374.878 295.046 369.222 292.972 366.603C291.112 364.254 286.626 365.002 284 365z"/>
<path style="fill:#b9d7d2; stroke:none;" d="M293 365L294 366L293 365M331 365L332 366L331 365z"/>
<path style="fill:#8c8c8a; stroke:none;" d="M332 365L332 366L343 366L332 365z"/>
<path style="fill:#b9d7d2; stroke:none;" d="M343 365L344 366L343 365M381 365L382 366L381 365z"/>
<path style="fill:#8c8c8a; stroke:none;" d="M391 418L391 417L382 417L382 366L391 366C388.296 364.866 383.239 363.994 381.603 367.318C377.278 376.108 381 395.188 381 405C381 408.122 379.954 413.778 382.028 416.397C383.888 418.746 388.374 417.998 391 418z"/>
<path style="fill:#b9d7d2; stroke:none;" d="M427 365L428 366L427 365z"/>
<path style="fill:#8c8c8a; stroke:none;" d="M428 365L428 366L441 366L428 365z"/>
<path style="fill:#1f1f1d; stroke:none;" d="M69 366L69 373L95 373L95 417L104 417L104 373L129 373L129 366L69 366M140 366L140 417L196 417L196 410L149 410L149 394L180 394L180 387L149 387L149 373L194 373L194 366L140 366M210 366L210 417L218 417L218 398L244.91 399.028L259.515 415.972L270 417L256 397C270.202 394.862 276.158 374.967 261.985 367.688C256.937 365.095 250.489 366 245 366L210 366z"/>
<path style="fill:#8c8c8a; stroke:none;" d="M259 366L260 367L259 366z"/>
<path style="fill:#b9d7d2; stroke:none;" d="M260 366L261 367L260 366z"/>
<path style="fill:#1f1f1d; stroke:none;" d="M284 366L284 417L293 417L293 366L284 366M304 417C306.83 417 310.909 417.685 313.363 415.972C318.985 412.046 317.538 406.164 326 406.005C333.709 405.86 346.682 403.598 353.815 406.603C357.983 408.36 358.2 413.577 361.637 415.972C364.093 417.684 368.168 417 371 417L350.745 379L341.787 366.318L330.954 367.603L322.576 382L304 417M382 366L382 417L391 417L392.028 402.174L406 390L407 390C415.693 402.34 427.259 417 443 417L414 384L440 367L440 366C420.872 366 405.618 380.407 391 392L391 366L382 366z"/>
<path style="fill:#8c8c8a; stroke:none;" d="M426 366L427 367L426 366z"/>
<path style="fill:#b9d7d2; stroke:none;" d="M440 366L441 367L440 366M262 367L263 368L262 367z"/>
<path style="fill:#8c8c8a; stroke:none;" d="M330 367L331 368L330 367M344 367L345 368L344 367z"/>
<path style="fill:#b9d7d2; stroke:none;" d="M424 367L425 368L424 367z"/>
<path style="fill:#8c8c8a; stroke:none;" d="M438 367L439 368L438 367M263 368L264 369L263 368z"/>
<path style="fill:#b9d7d2; stroke:none;" d="M423 368L424 369L423 368M437 368L438 369L437 368M265 369L266 370L265 369z"/>
<path style="fill:#8c8c8a; stroke:none;" d="M329 369L330 370L329 369M345 369L346 370L345 369M422 369L423 370L422 369M435 369L436 370L435 369z"/>
<path style="fill:#b9d7d2; stroke:none;" d="M266 370L267 371L266 370M328 370L329 371L328 370M420 370L421 371L420 370z"/>
<path style="fill:#8c8c8a; stroke:none;" d="M434 370L435 371L434 370M328 371L329 372L328 371M346 371L347 372L346 371M419 371L420 372L419 371z"/>
<path style="fill:#b9d7d2; stroke:none;" d="M433 371L434 372L433 371z"/>
<path style="fill:#8c8c8a; stroke:none;" d="M267 372L268 373L267 372z"/>
<path style="fill:#b9d7d2; stroke:none;" d="M327 372L328 373L327 372M347 372L348 373L347 372M417 372L418 373L417 372z"/>
<path style="fill:#8c8c8a; stroke:none;" d="M431 372L432 373L431 372z"/>
<path style="fill:#b9d7d2; stroke:none;" d="M69 373L69 374L94 374L69 373z"/>
<path style="fill:#8c8c8a; stroke:none;" d="M94 373L94 404L95.0278 416.397L104 418L104 417L95 417C95 404.52 98.8102 384.463 94 373z"/>
<path style="fill:#b9d7d2; stroke:none;" d="M104 373L104 374L130 374L104 373M149 373L149 374L194 374C182.299 369.09 161.742 373 149 373z"/>
<path style="fill:#8c8c8a; stroke:none;" d="M218 373L218 390L219 390L218 373z"/>
<path style="fill:#b9d7d2; stroke:none;" d="M219 373L219 374L251 374L219 373z"/>
<path style="fill:#8c8c8a; stroke:none;" d="M251 373L251 374L254 374L251 373z"/>
<path style="fill:#b9d7d2; stroke:none;" d="M268 373L269 374L268 373z"/>
<path style="fill:#8c8c8a; stroke:none;" d="M337 373L338 374L337 373M347 373L348 374L347 373z"/>
<path style="fill:#b9d7d2; stroke:none;" d="M416 373L417 374L416 373M430 373L431 374L430 373z"/>
<path style="fill:#ffffff; stroke:none;" d="M219 374L219 389L248 389C251.724 388.994 256.72 389.467 258.972 385.772C261.794 381.141 258.91 375.563 253.985 374.394C243.35 371.872 229.924 374 219 374z"/>
<path style="fill:#b9d7d2; stroke:none;" d="M255 374L256 375L255 374z"/>
<path style="fill:#8c8c8a; stroke:none;" d="M256 374L257 375L256 374z"/>
<path style="fill:#b9d7d2; stroke:none;" d="M326 374L327 375L326 374z"/>
<path style="fill:#ffffff; stroke:none;" d="M337 374L325 398L350 398L337 374z"/>
<path style="fill:#b9d7d2; stroke:none;" d="M348 374L349 375L348 374z"/>
<path style="fill:#8c8c8a; stroke:none;" d="M415 374L416 375L415 374M428 374L429 375L428 374z"/>
<path style="fill:#b9d7d2; stroke:none;" d="M257 375L258 376L257 375M269 375L270 376L269 375M336 375L337 376L336 375M338 375L339 376L338 375M413 375L414 376L413 375z"/>
<path style="fill:#8c8c8a; stroke:none;" d="M427 375L428 376L427 375M269 376L270 377L269 376M325 376L326 377L325 376M339 376L340 377L339 376z"/>
<path style="fill:#b9d7d2; stroke:none;" d="M349 376L350 377L349 376z"/>
<path style="fill:#8c8c8a; stroke:none;" d="M412 376L413 377L412 376z"/>
<path style="fill:#b9d7d2; stroke:none;" d="M426 376L427 377L426 376M259 377L260 378L259 377M335 377L336 378L335 377M339 377L340 378L339 377M410 377L411 378L410 377z"/>
<path style="fill:#8c8c8a; stroke:none;" d="M424 377L425 378L424 377M324 378L325 379L324 378M334 378L335 379L334 378M340 378L341 379L340 378M350 378L351 379L350 378z"/>
<path style="fill:#b9d7d2; stroke:none;" d="M409 378L410 379L409 378M423 378L424 379L423 378z"/>
<path style="fill:#8c8c8a; stroke:none;" d="M260 379L261 380L260 379z"/>
<path style="fill:#b9d7d2; stroke:none;" d="M334 379L335 380L334 379z"/>
<path style="fill:#8c8c8a; stroke:none;" d="M408 379L409 380L408 379M421 379L422 380L421 379z"/>
<path style="fill:#b9d7d2; stroke:none;" d="M260 380L260 384L261 384L260 380M270 380L270 383L271 383L270 380z"/>
<path style="fill:#8c8c8a; stroke:none;" d="M323 380L324 381L323 380M333 380L334 381L333 380M341 380L342 381L341 380M351 380L352 381L351 380z"/>
<path style="fill:#b9d7d2; stroke:none;" d="M406 380L407 381L406 380z"/>
<path style="fill:#8c8c8a; stroke:none;" d="M420 380L421 381L420 380z"/>
<path style="fill:#b9d7d2; stroke:none;" d="M322 381L323 382L322 381z"/>
<path style="fill:#8c8c8a; stroke:none;" d="M405 381L406 382L405 381z"/>
<path style="fill:#b9d7d2; stroke:none;" d="M419 381L420 382L419 381z"/>
<path style="fill:#8c8c8a; stroke:none;" d="M322 382L323 383L322 382M332 382L333 383L332 382M342 382L343 383L342 382M352 382L353 383L352 382z"/>
<path style="fill:#b9d7d2; stroke:none;" d="M403 382L404 383L403 382z"/>
<path style="fill:#8c8c8a; stroke:none;" d="M417 382L418 383L417 382z"/>
<path style="fill:#b9d7d2; stroke:none;" d="M321 383L322 384L321 383M353 383L354 384L353 383M402 383L403 384L402 383M416 383L417 384L416 383z"/>
<path style="fill:#8c8c8a; stroke:none;" d="M260 384L261 385L260 384M331 384L332 385L331 384M343 384L344 385L343 384M353 384L354 385L353 384M401 384L402 385L401 384M414 384L415 385L414 384z"/>
<path style="fill:#b9d7d2; stroke:none;" d="M320 385L321 386L320 385M354 385L355 386L354 385M399 385L400 386L399 385M414 385L415 386L414 385z"/>
<path style="fill:#8c8c8a; stroke:none;" d="M149 386L149 387L180 387L149 386z"/>
<path style="fill:#b9d7d2; stroke:none;" d="M180 386L180 395L181 395L180 386z"/>
<path style="fill:#8c8c8a; stroke:none;" d="M259 386L260 387L259 386M269.333 386.667L269.667 387.333L269.333 386.667z"/>
<path style="fill:#b9d7d2; stroke:none;" d="M330 386L331 387L330 386M344 386L345 387L344 386z"/>
<path style="fill:#8c8c8a; stroke:none;" d="M398 386L399 387L398 386z"/>
<path style="fill:#b9d7d2; stroke:none;" d="M415 386L416 387L415 386z"/>
<path style="fill:#8c8c8a; stroke:none;" d="M258 387L259 388L258 387M319 387L320 388L319 387z"/>
<path style="fill:#b9d7d2; stroke:none;" d="M355 387L356 388L355 387M396 387L397 388L396 387M416 387L417 388L416 387M256 388L257 389L256 388M329 388L330 389L329 388M345 388L346 389L345 388M395 388L396 389L395 388M219 389L219 390L253 390L219 389z"/>
<path style="fill:#8c8c8a; stroke:none;" d="M253.667 389.333L254.333 389.667L253.667 389.333M268 389L269 390L268 389M318 389L319 390L318 389M328 389L329 390L328 389M346 389L347 390L346 389M356 389L357 390L356 389M394 389L395 390L394 389z"/>
<path style="fill:#b9d7d2; stroke:none;" d="M346 390L347 391L346 390M392 390L393 391L392 390z"/>
<path style="fill:#8c8c8a; stroke:none;" d="M406 390L407 391L406 390z"/>
<path style="fill:#b9d7d2; stroke:none;" d="M267 391L268 392L267 391z"/>
<path style="fill:#8c8c8a; stroke:none;" d="M317 391L318 392L317 391M327 391L328 392L327 391M347 391L348 392L347 391M357 391L358 392L357 391M391 391L392 392L391 391z"/>
<path style="fill:#b9d7d2; stroke:none;" d="M405 391L406 392L405 391M407 391L408 392L407 391z"/>
<path style="fill:#8c8c8a; stroke:none;" d="M266 392L267 393L266 392z"/>
<path style="fill:#b9d7d2; stroke:none;" d="M316 392L317 393L316 392z"/>
<path style="fill:#8c8c8a; stroke:none;" d="M403 392L404 393L403 392z"/>
<path style="fill:#b9d7d2; stroke:none;" d="M408 392L409 393L408 392z"/>
<path style="fill:#8c8c8a; stroke:none;" d="M265 393L266 394L265 393M316 393L317 394L316 393M326 393L327 394L326 393M348 393L349 394L348 393M358 393L359 394L358 393M402 393L403 394L402 393M409 393L410 394L409 393M421 393L422 394L421 393M149 394L149 395L180 395L149 394z"/>
<path style="fill:#b9d7d2; stroke:none;" d="M264 394L265 395L264 394M315 394L316 395L315 394M359 394L360 395L359 394M401 394L402 395L401 394z"/>
<path style="fill:#8c8c8a; stroke:none;" d="M410 394L411 395L410 394M422 394L423 395L422 394M262 395L263 396L262 395z"/>
<path style="fill:#b9d7d2; stroke:none;" d="M325 395L326 396L325 395z"/>
<path style="fill:#8c8c8a; stroke:none;" d="M349 395L350 396L349 395M359 395L360 396L359 395M399 395L400 396L399 395M411 395L412 396L411 395M423 395L424 396L423 395M259 396L260 397L259 396z"/>
<path style="fill:#b9d7d2; stroke:none;" d="M260 396L261 397L260 396z"/>
<path style="fill:#8c8c8a; stroke:none;" d="M314 396L315 397L314 396z"/>
<path style="fill:#b9d7d2; stroke:none;" d="M360 396L361 397L360 396M398 396L399 397L398 396z"/>
<path style="fill:#8c8c8a; stroke:none;" d="M412 396L413 397L412 396M424 396L425 397L424 396M256 397L257 398L256 397z"/>
<path style="fill:#b9d7d2; stroke:none;" d="M257.333 397.667L257.667 398.333L257.333 397.667M324 397L325 398L324 397M350 397L351 398L350 397z"/>
<path style="fill:#8c8c8a; stroke:none;" d="M396 397L397 398L396 397M413 397L414 398L413 397M425 397L426 398L425 397M313 398L314 399L313 398M361 398L362 399L361 398z"/>
<path style="fill:#b9d7d2; stroke:none;" d="M395 398L396 399L395 398z"/>
<path style="fill:#8c8c8a; stroke:none;" d="M414 398L415 399L414 398M426 398L427 399L426 398z"/>
<path style="fill:#b9d7d2; stroke:none;" d="M246 399L247 400L246 399M394 399L395 400L394 399z"/>
<path style="fill:#8c8c8a; stroke:none;" d="M415 399L416 400L415 399M427 399L428 400L427 399M247 400L248 401L247 400M258 400L259 401L258 400M312 400L313 401L312 400M362 400L363 401L362 400M392 400L393 401L392 400M416 400L417 401L416 400M428 400L429 401L428 400M259 401L260 402L259 401z"/>
<path style="fill:#b9d7d2; stroke:none;" d="M311 401L312 402L311 401M391 401L392 402L391 401z"/>
<path style="fill:#8c8c8a; stroke:none;" d="M417 401L418 402L417 401z"/>
<path style="fill:#b9d7d2; stroke:none;" d="M429 401L430 402L429 401M248 402L249 403L248 402M260 402L261 403L260 402z"/>
<path style="fill:#8c8c8a; stroke:none;" d="M311 402L312 403L311 402M363 402L364 403L363 402z"/>
<path style="fill:#b9d7d2; stroke:none;" d="M430 402L431 403L430 402M249 403L250 404L249 403M310 403L311 404L310 403M364 403L365 404L364 403M431 403L432 404L431 403z"/>
<path style="fill:#8c8c8a; stroke:none;" d="M250 404L251 405L250 404M261 404L262 405L261 404M364 404L365 405L364 404z"/>
<path style="fill:#b9d7d2; stroke:none;" d="M432 404L433 405L432 404M262 405L263 406L262 405M309 405L310 406L309 405M365 405L366 406L365 405M433 405L434 406L433 405M251 406L252 407L251 406M319 406L320 407L319 406M355 406L356 407L355 406M421 406L422 407L421 406z"/>
<path style="fill:#8c8c8a; stroke:none;" d="M252 407L253 408L252 407M263 407L264 408L263 407M308 407L309 408L308 407M318 407L319 408L318 407z"/>
<path style="fill:#b9d7d2; stroke:none;" d="M366 407L367 408L366 407M422 407L423 408L422 407z"/>
<path style="fill:#8c8c8a; stroke:none;" d="M253 408L254 409L253 408z"/>
<path style="fill:#b9d7d2; stroke:none;" d="M264 408L265 409L264 408M318 408L319 409L318 408M356 408L357 409L356 408M423 408L424 409L423 408z"/>
<path style="fill:#8c8c8a; stroke:none;" d="M149 409L149 410L196 410C183.823 404.89 162.265 409 149 409z"/>
<path style="fill:#b9d7d2; stroke:none;" d="M196 409L196 418L197 418L196 409M265 409L266 410L265 409z"/>
<path style="fill:#8c8c8a; stroke:none;" d="M307 409L308 410L307 409M317 409L318 410L317 409M357 409L358 410L357 409M367 409L368 410L367 409z"/>
<path style="fill:#b9d7d2; stroke:none;" d="M424 409L425 410L424 409M254 410L255 411L254 410M357 410L358 411L357 410M425 410L426 411L425 410z"/>
<path style="fill:#8c8c8a; stroke:none;" d="M437 410L438 411L437 410M255 411L256 412L255 411M266 411L267 412L266 411M306 411L307 412L306 411M316 411L317 412L316 411M358 411L359 412L358 411M368 411L369 412L368 411M426 411L427 412L426 411M438 411L439 412L438 411M256 412L257 413L256 412z"/>
<path style="fill:#b9d7d2; stroke:none;" d="M267 412L268 413L267 412M305 412L306 413L305 412M358 412L359 413L358 412z"/>
<path style="fill:#8c8c8a; stroke:none;" d="M427 412L428 413L427 412M439 412L440 413L439 412M305 413L306 414L305 413M315 413L316 414L315 413M359 413L360 414L359 413M369 413L370 414L369 413M428 413L429 414L428 413M440 413L441 414L440 413z"/>
<path style="fill:#b9d7d2; stroke:none;" d="M257 414L258 415L257 414z"/>
<path style="fill:#8c8c8a; stroke:none;" d="M268 414L269 415L268 414z"/>
<path style="fill:#b9d7d2; stroke:none;" d="M304 414L305 415L304 414M370 414L371 415L370 414z"/>
<path style="fill:#8c8c8a; stroke:none;" d="M429 414L430 415L429 414M441 414L442 415L441 414M258 415L259 416L258 415z"/>
<path style="fill:#b9d7d2; stroke:none;" d="M269 415L270 416L269 415z"/>
<path style="fill:#8c8c8a; stroke:none;" d="M314 415L315 416L314 415M360 415L361 416L360 415M370 415L371 416L370 415M430 415L431 416L430 415M442 415L443 416L442 415z"/>
<path style="fill:#b9d7d2; stroke:none;" d="M270.333 416.667L270.667 417.333L270.333 416.667M303 416L304 417L303 416M371.333 416.667L371.667 417.333L371.333 416.667z"/>
<path style="fill:#8c8c8a; stroke:none;" d="M431 416L432 417L431 416M443 416L432 417L432 418L443 416z"/>
<path style="fill:#b9d7d2; stroke:none;" d="M94 417L95 418L94 417z"/>
<path style="fill:#8c8c8a; stroke:none;" d="M140 417L140 418L196 418L178 417L140 417z"/>
<path style="fill:#b9d7d2; stroke:none;" d="M209 417L210 418L209 417M218 417L219 418L218 417z"/>
<path style="fill:#8c8c8a; stroke:none;" d="M260 417L260 418L270 418L260 417z"/>
<path style="fill:#b9d7d2; stroke:none;" d="M293 417L294 418L293 417z"/>
<path style="fill:#8c8c8a; stroke:none;" d="M303 417L303 418L313 418L303 417z"/>
<path style="fill:#b9d7d2; stroke:none;" d="M313 417L314 418L313 417M361 417L362 418L361 417z"/>
<path style="fill:#8c8c8a; stroke:none;" d="M362 417L362 418L371 418L362 417z"/>
<path style="fill:#b9d7d2; stroke:none;" d="M381 417L382 418L381 417z"/>
</svg>
